Coordinates
version=1
nRows=22
nColumns=24
inDegrees=yes

Units are S.I. units (second, meters, Newtons, ...)
Angles are in degrees.

endheader
time	pelvis_tilt	pelvis_list	pelvis_rotation	pelvis_tx	pelvis_ty	pelvis_tz	hip_flexion_r	hip_adduction_r	hip_rotation_r	knee_angle_r	ankle_angle_r	subtalar_angle_r	mtp_angle_r	hip_flexion_l	hip_adduction_l	hip_rotation_l	knee_angle_l	ankle_angle_l	subtalar_angle_l	mtp_angle_l	lumbar_extension	lumbar_bending	lumbar_rotation
      0.94583333	      4.55792394	     -3.05213583	      0.74959479	     -0.36950355	      1.07854403	      0.32717643	      1.41014475	      8.99336547	     -4.79643119	    -10.35805271	      0.87853162	    -12.06034042	     -1.10378922	     10.77224913	     -4.40801618	      1.35537028	    -62.15718720	      0.07762938	     -6.26195426	     10.94594270	      0.77085231	      7.23282132	      0.38430362
      0.95000000	      4.44797384	     -2.98926862	      0.72232503	     -0.36480176	      1.07882983	      0.32723917	      1.14169174	      8.94771838	     -4.79504408	    -10.16096444	      1.07880700	    -11.94625832	     -1.11983704	     11.37495779	     -4.19415534	      1.66048231	    -61.72956787	      0.86914427	     -6.49386853	     10.67747066	      0.85394160	      7.06902624	      0.28826769
      0.95416667	      4.39280300	     -2.92920196	      0.66173198	     -0.36011419	      1.07917600	      0.32745181	      0.78791464	      8.92186984	     -4.60764133	     -9.90921159	      1.20334839	    -11.94762707	     -1.13868633	     11.89341955	     -4.00764424	      1.91120986	    -61.22555989	      1.34553515	     -6.82855653	     10.41695513	      0.90993134	      6.97156405	      0.25220701
      0.95833333	      4.36455161	     -2.87745836	      0.63886444	     -0.35545881	      1.07952112	      0.32768940	      0.39332117	      8.91452988	     -4.38803085	     -9.61713396	      1.27817661	    -11.96170633	     -1.14968728	     12.38083616	     -3.83465669	      2.19142217	    -60.67883279	      1.69026847	     -7.11944768	     10.27429936	      0.91764214	      6.85974005	      0.27430407
      0.96250000	      4.33455591	     -2.80881231	      0.56677598	     -0.35079297	      1.07985313	      0.32791944	      0.00808751	      8.87912259	     -4.18124006	     -9.35502968	      1.37770279	    -12.05016234	     -1.16382333	     12.83895655	     -3.64545495	      2.40765319	    -60.07853559	      2.14290001	     -7.53111073	     10.11525303	      0.93699421	      6.74882325	      0.31016875
      0.96666667	      4.30445503	     -2.74906710	      0.48544976	     -0.34615902	      1.08015256	      0.32817757	     -0.37529100	      8.85388612	     -3.96217837	     -9.09119365	      1.46484205	    -12.15873421	     -1.18034870	     13.28525226	     -3.47498404	      2.60403479	    -59.43792693	      2.55335209	     -7.94938848	      9.94332101	      0.93874348	      6.65475638	      0.35751121
      0.97083333	      4.26022315	     -2.68842906	      0.40064491	     -0.34154585	      1.08040843	      0.32843397	     -0.74245075	      8.82511141	     -3.73371071	     -8.82756497	      1.54304959	    -12.28200812	     -1.19881058	     13.73491402	     -3.30722643	      2.79103960	    -58.75576204	      2.92753671	     -8.36129269	      9.76254235	      0.95098842	      6.55922639	      0.41947620
      0.97500000	      4.22186409	     -2.62730258	      0.31078433	     -0.33696182	      1.08063075	      0.32872283	     -1.11460924	      8.79758016	     -3.50198146	     -8.55976502	      1.61794768	    -12.42397974	     -1.22018733	     14.16585718	     -3.14764276	      2.96025892	    -58.03119142	      3.27570256	     -8.77337358	      9.56428001	      0.95953837	      6.46804609	      0.49227465
      0.97916667	      4.16324042	     -2.57487792	      0.22639197	     -0.33235533	      1.08079932	      0.32896980	     -1.46836339	      8.77460906	     -3.26794116	     -8.29054344	      1.68640700	    -12.56591810	     -1.24302707	     14.60532325	     -2.99769092	      3.12548296	    -57.27045942	      3.59223220	     -9.16168137	      9.36074982	      0.97909658	      6.38615752	      0.57156490
      0.98333333	      4.08719750	     -2.51245383	      0.03096536	     -0.32783425	      1.08093383	      0.32933589	     -1.77786254	      8.73121949	     -2.98405667	     -8.07931310	      1.74301809	    -12.88613379	     -1.29920366	     15.03254064	     -2.86486953	      3.16345940	    -56.45457570	      3.89750217	     -9.72206685	      8.88978892	      0.94895954	      6.31740040	      0.71698285
      0.98750000	      4.03665889	     -2.48748457	      0.03847028	     -0.32325185	      1.08101749	      0.32950819	     -2.15270278	      8.74317848	     -2.78502155	     -7.76279970	      1.78244511	    -12.91506547	     -1.31790340	     15.46084881	     -2.73953934	      3.41260540	    -55.63403617	      4.08112019	     -9.89164667	      8.72652588	      1.00350867	      6.26760404	      0.78327429
      0.99166667	      3.94182453	     -2.43787410	     -0.19054733	     -0.31869758	      1.08107106	      0.33009422	     -2.47796075	      8.73018441	     -2.21852631	     -7.47746793	      1.68089964	    -13.63531156	     -1.60552391	     15.87213518	     -2.66524620	      3.37617938	    -54.71235188	      4.01928222	    -10.55832468	      6.43779054	      1.07442962	      6.31662339	      1.27298691
      0.99583333	      3.87164326	     -2.41334991	     -0.16771486	     -0.31415002	      1.08105027	      0.33016033	     -2.81273253	      8.72967882	     -2.15565217	     -7.19564990	      1.77964565	    -13.54425721	     -1.62281273	     16.30176364	     -2.53630680	      3.62123840	    -53.84494457	      4.45090567	    -10.66475743	      6.29335899	      1.07235393	      6.15694953	      1.27316884
      1.00000000	      3.80346671	     -2.37662755	     -0.23181921	     -0.30958568	      1.08102862	      0.33029962	     -3.14101264	      8.70468039	     -2.05195033	     -6.94894494	      1.90228245	    -13.52140051	     -1.64316870	     16.68882843	     -2.41703110	      3.76624016	    -52.90746077	      4.76722747	    -10.82491237	      6.12991171	      1.12883193	      6.11590029	      1.26359133
      1.00416667	      3.73044316	     -2.35248902	     -0.29236646	     -0.30504360	      1.08096431	      0.33045678	     -3.46805434	      8.69561741	     -1.90666427	     -6.69065406	      2.01450822	    -13.52672882	     -1.66516440	     17.07162898	     -2.31911760	      3.89921221	    -51.93682918	      5.00690059	    -11.01558677	      5.95821726	      1.17380726	      6.06445998	      1.26979310
      1.00833333	      3.63078611	     -2.34025283	     -0.36602546	     -0.30060973	      1.08081459	      0.33052128	     -3.73853430	      8.68398293	     -1.83541980	     -6.48078874	      2.07299358	    -13.54025806	     -1.67429593	     17.48048899	     -2.23143605	      4.03488221	    -50.94018111	      5.13934450	    -11.10116202	      5.88843378	      1.11827881	      6.08929079	      1.26621969
      1.01250000	      3.48411186	     -2.34642921	     -0.52324478	     -0.29610532	      1.08057473	      0.33097116	     -4.01086183	      8.71997675	     -1.29985423	     -6.18685314	      2.22615777	    -13.79792585	     -1.82602886	     17.91426832	     -2.23028165	      4.00553658	    -49.91060605	      5.20358468	    -11.67799034	      4.81967500	      1.24751503	      6.03195460	      1.37524388
      1.01666667	      3.41070079	     -2.33222223	     -0.55651041	     -0.29156386	      1.08040315	      0.33096237	     -4.32171594	      8.70308183	     -1.32256095	     -5.95666682	      2.26025937	    -13.81475550	     -1.83803106	     18.25826775	     -2.13822106	      4.15736098	    -48.83705265	      5.34994168	    -11.67638604	      4.74145187	      1.28151528	      6.04641316	      1.38995091
      1.02083333	      3.35311972	     -2.32632224	     -0.55937669	     -0.28690547	      1.08021340	      0.33109939	     -4.68756019	      8.71819553	     -1.24009510	     -5.64793624	      2.33928632	    -13.82305219	     -1.86100927	     18.57321432	     -2.07690906	      4.26188061	    -47.74953739	      5.55595672	    -11.73796271	      4.58411992	      1.42022765	      5.97851102	      1.43062768
      1.02500000	      3.26555088	     -2.33495495	     -0.60556064	     -0.28235145	      1.07994152	      0.33119267	     -5.00146736	      8.73377943	     -1.11783142	     -5.38506102	      2.42506588	    -13.84095087	     -1.88534297	     18.91031152	     -2.03746188	      4.34038945	    -46.63627213	      5.70442760	    -11.78977007	      4.41785569	      1.47931940	      5.97500190	      1.45358135
      1.02916667	      3.14668626	     -2.37147699	     -0.64468572	     -0.27790659	      1.07956062	      0.33123491	     -5.25355016	      8.77621576	     -1.09789874	     -5.15679247	      2.47171626	    -13.84803742	     -1.89234664	     19.29143364	     -2.02693955	      4.40852412	    -45.52296450	      5.79681926	    -11.79478923	      4.36956673	      1.40862286	      6.04062193	      1.44575063
      1.03333333	      3.09835877	     -2.38071867	     -0.67867441	     -0.27330269	      1.07928557	      0.33132539	     -5.62991267	      8.79172527	     -0.91826743	     -4.86347739	      2.57635334	    -13.86020423	     -1.91320384	     19.55097108	     -1.99706775	      4.48031199	    -44.34028891	      5.91653981	    -11.81204797	      4.22556179	      1.59240296	      6.02091443	      1.48320687
